<svg width="304.915625" height="304.915625" viewBox="0 0 279.6875 279.6875"
                                        class="looka-1j8o68f">
                                        <defs id="SvgjsDefs1981"></defs>
                                        <g id="SvgjsG1982" featurekey="rootContainer"
                                            transform="matrix(5.773895704567281,0,0,5.773895704567281,0,0)"
                                            fill="#3490de">
                                            <path xmlns="http://www.w3.org/2000/svg"
                                                d="M24.22 48.44a24.22 24.22 0 1 1 24.22-24.22 24.25 24.25 0 0 1-24.22 24.22zm0-47.62a23.4 23.4 0 1 0 23.4 23.4A23.43 23.43 0 0 0 24.22.82z">
                                            </path>
                                            <path xmlns="http://www.w3.org/2000/svg"
                                                d="M24.22 46.19a22 22 0 1 1 22-22 22 22 0 0 1-22 22zm0-43.67a21.7 21.7 0 1 0 21.7 21.7 21.72 21.72 0 0 0-21.7-21.71z">
                                            </path>
                                        </g>
                                        <g id="SvgjsG1983" featurekey="symbolFeature-0"
                                            transform="matrix(0.6189015903880246,0,0,0.6189015903880246,109.05492726825011,45.96041990654054)"
                                            fill="#3490de">
                                            <title xmlns="http://www.w3.org/2000/svg">21</title>
                                            <g xmlns="http://www.w3.org/2000/svg" data-name="Group">
                                                <path data-name="Compound Path"
                                                    d="M94.5,49a4,4,0,1,0-3.9-5H67.2a16.5,16.5,0,0,0-2.4-6H82.6a4,4,0,1,0,0-2H63.3l-.3-.4V15.5H77.1a4,4,0,1,0,0-1.9H62a1,1,0,0,0-1,1V33.9a16.6,16.6,0,0,0-7.1-3.1,1,1,0,0,0,.1-.3V22.4a4,4,0,1,0-2,0v8.1H50.9a16.8,16.8,0,0,0-4.9.7V14.4a4,4,0,1,0-2,0V31.5a1,1,0,0,0,.1.5A16.5,16.5,0,0,0,38,36.7V22.4a4,4,0,1,0-2,0V37.5H12.5v-14h0a4,4,0,1,0-1.9,0h0v15a1,1,0,0,0,1,1H36.1l-.4.9a13.5,13.5,0,0,0-10.9,6.2H17.4a4,4,0,1,0,0,2h6.4a13.4,13.4,0,0,0-1.1,5.4c0,.2,0,.4,0,.6H9.4a4,4,0,1,0,0,2H22.8a13.5,13.5,0,0,0,2.8,6H17.4a4,4,0,1,0,0,2H27.7a13.5,13.5,0,0,0,8.4,3h0v15H21.9a4,4,0,1,0,0,1.9H37a1,1,0,0,0,1-1v-16h7V77.6a4,4,0,1,0,2,0V67.5h6V85.6a4,4,0,1,0,2,0V67.5h6V77.6a4,4,0,1,0,2,0V67.5h3.6A10.8,10.8,0,0,0,75.3,63H89.5V77h0a4,4,0,1,0,1.9,0h0V62a1,1,0,0,0-1-1h-14a10.7,10.7,0,0,0,.6-7h5.6a4,4,0,1,0,0-2H76.4a10.9,10.9,0,0,0-7.6-6H90.6A4,4,0,0,0,94.5,49Zm-8-14a2,2,0,1,1-2,2A2,2,0,0,1,86.5,35ZM81,12.5a2,2,0,1,1-2,2A2,2,0,0,1,81,12.5Zm-30,6a2,2,0,1,1,2,2A2,2,0,0,1,51,18.5Zm-8-8a2,2,0,1,1,2,2A2,2,0,0,1,43,10.5Zm-33.5,9a2,2,0,1,1,2,2A2,2,0,0,1,9.5,19.5Zm4,30a2,2,0,1,1,2-2A2,2,0,0,1,13.5,49.5Zm-8,8a2,2,0,1,1,2-2A2,2,0,0,1,5.5,57.5ZM18,85.5a2,2,0,1,1,2-2A2,2,0,0,1,18,85.5Zm30-4a2,2,0,1,1-2-2A2,2,0,0,1,48,81.5Zm8,8a2,2,0,1,1-2-2A2,2,0,0,1,56,89.5Zm8-8a2,2,0,1,1-2-2A2,2,0,0,1,64,81.5ZM92.5,81a2,2,0,1,1-2-2A2,2,0,0,1,92.5,81Zm-6-30a2,2,0,1,1-2,2A2,2,0,0,1,86.5,51Zm8-8a2,2,0,1,1-2,2A2,2,0,0,1,94.5,43ZM35,18.5a2,2,0,1,1,2,2A2,2,0,0,1,35,18.5Zm-21.5,47a2,2,0,1,1,2-2A2,2,0,0,1,13.5,65.5Zm61.9-8.9a8.9,8.9,0,0,1-8.8,8.8H36.1a11.5,11.5,0,1,1,0-23.1h.1a1,1,0,0,0,1.1-.6,14.7,14.7,0,0,1,28.3,5,1,1,0,0,0,1,1A8.9,8.9,0,0,1,75.4,56.6Z">
                                                </path>
                                            </g>
                                        </g>
                                        <g id="SvgjsG1984" featurekey="nameFeature-0"
                                            transform="matrix(2.6225608825211895,0,0,2.6225608825211895,61.8529311927918,92.52927191081469)"
                                            fill="#3490de">
                                            <path
                                                d="M1.2 40 l0 -4.48 l0.84 -0.56 l0 -17.92 l-0.84 -0.56 l0 -4.48 l6.2 0 l5.84 14.96 l0 -9.92 l-0.84 -0.56 l0 -4.48 l6.72 0 l0 4.48 l-0.84 0.56 l0 22.96 l-5.36 0 l-5.84 -14.96 l0 9.92 l0.84 0.56 l0 4.48 l-6.72 0 z M22.098 40 l0 -4.48 l0.84 -0.56 l0 -17.92 l-0.84 -0.56 l0 -4.48 l13.36 0 l3.72 3.72 l0 20.56 l-3.72 3.72 l-13.36 0 z M27.978 34.96 l5.4 0 l0.76 -0.76 l0 -16.4 l-0.76 -0.76 l-5.4 0 l0 17.92 z M45.876000000000005 40 l-3.72 -3.72 l0 -20.56 l3.72 -3.72 l8.8 0 l3.72 3.72 l0 5.24 l-5.04 0 l0 -3.16 l-0.76 -0.76 l-4.64 0 l-0.76 0.76 l0 16.4 l0.76 0.76 l4.64 0 l0.76 -0.76 l0 -3.16 l5.04 0 l0 5.24 l-3.72 3.72 l-8.8 0 z">
                                            </path>
                                        </g>
                                        <g id="SvgjsG1985" featurekey="sloganFeature-0"
                                            transform="matrix(0.8551881897487943,0,0,0.8551881897487943,79.48688798327883,203.86887208486377)"
                                            fill="#3490de">
                                            <path
                                                d="M0.6 20 l0 -2.24 l0.42 -0.28 l0 -8.96 l-0.42 -0.28 l0 -2.24 l3.1 0 l2.92 7.48 l0 -4.96 l-0.42 -0.28 l0 -2.24 l3.36 0 l0 2.24 l-0.42 0.28 l0 11.48 l-2.68 0 l-2.92 -7.48 l0 4.96 l0.42 0.28 l0 2.24 l-3.36 0 z M12.620000000000001 20 l-1.86 -1.86 l0 -10.28 l1.86 -1.86 l4.54 0 l1.86 1.86 l0 10.28 l-1.86 1.86 l-4.54 0 z M13.66 17.48 l2.46 0 l0.38 -0.38 l0 -8.2 l-0.38 -0.38 l-2.46 0 l-0.38 0.38 l0 8.2 z M22.740000000000002 20 l0 -2.24 l0.42 -0.28 l0 -8.96 l-0.42 0 l-0.28 0.42 l-2.24 0 l0 -2.94 l8.4 0 l0 2.94 l-2.24 0 l-0.28 -0.42 l-0.42 0 l0 8.96 l0.42 0.28 l0 2.24 l-3.36 0 z M29.82 20 l0 -2.24 l0.42 -0.28 l0 -8.96 l-0.42 -0.28 l0 -2.24 l3.36 0 l0 2.24 l-0.42 0.28 l0 3.22 l3.08 0 l0 -3.22 l-0.42 -0.28 l0 -2.24 l3.36 0 l0 2.24 l-0.42 0.28 l0 8.96 l0.42 0.28 l0 2.24 l-3.36 0 l0 -2.24 l0.42 -0.28 l0 -3.22 l-3.08 0 l0 3.22 l0.42 0.28 l0 2.24 l-3.36 0 z M39.98 20 l0 -2.24 l0.42 -0.28 l0 -8.96 l-0.42 -0.28 l0 -2.24 l3.36 0 l0 2.24 l-0.42 0.28 l0 8.96 l0.42 0.28 l0 2.24 l-3.36 0 z M44.54 20 l0 -2.24 l0.42 -0.28 l0 -8.96 l-0.42 -0.28 l0 -2.24 l3.1 0 l2.92 7.48 l0 -4.96 l-0.42 -0.28 l0 -2.24 l3.36 0 l0 2.24 l-0.42 0.28 l0 11.48 l-2.68 0 l-2.92 -7.48 l0 4.96 l0.42 0.28 l0 2.24 l-3.36 0 z M56.559999999999995 20 l-1.86 -1.86 l0 -10.28 l1.86 -1.86 l4.4 0 l1.86 1.86 l0 2.62 l-2.52 0 l0 -1.58 l-0.38 -0.38 l-2.32 0 l-0.38 0.38 l0 8.2 l0.38 0.38 l2.32 0 l0.38 -0.38 l0 -2.84 l-0.84 0 l-0.42 -0.28 l0 -2.24 l3.78 0 l0 6.4 l-1.86 1.86 l-4.4 0 z M67.61999999999999 20 l0 -2.24 l0.42 -0.28 l0 -8.96 l-0.42 -0.28 l0 -2.24 l3.36 0 l0 2.24 l-0.42 0.28 l0 8.96 l0.42 0.28 l0 2.24 l-3.36 0 z M72.17999999999999 20 l0 -2.24 l0.42 -0.28 l0 -8.96 l-0.42 -0.28 l0 -2.24 l3.1 0 l2.08 5.3 l2.08 -5.3 l3.1 0 l0 2.24 l-0.42 0.28 l0 8.96 l0.42 0.28 l0 2.24 l-3.36 0 l0 -2.24 l0.42 -0.28 l0 -4.98 l-1.24 3.16 l-2 0 l-1.24 -3.16 l0 4.98 l0.42 0.28 l0 2.24 l-3.36 0 z M83.74 20 l0 -2.24 l0.42 -0.28 l0 -8.96 l-0.42 -0.28 l0 -2.24 l6.4 0 l1.86 1.86 l0 5.38 l-1.86 1.86 l-3.46 0 l0 2.38 l0.42 0.28 l0 2.24 l-3.36 0 z M86.68 12.58 l2.42 0 l0.38 -0.38 l0 -3.3 l-0.38 -0.38 l-2.42 0 l0 4.06 z M95.05999999999999 20 l-1.86 -1.86 l0 -10.28 l1.86 -1.86 l4.54 0 l1.86 1.86 l0 10.28 l-1.86 1.86 l-4.54 0 z M96.1 17.48 l2.46 0 l0.38 -0.38 l0 -8.2 l-0.38 -0.38 l-2.46 0 l-0.38 0.38 l0 8.2 z M104.52 20 l-1.86 -1.86 l0 -2.62 l2.52 0 l0 1.58 l0.38 0.38 l2.04 0 l0.38 -0.38 l0 -2.46 l-0.38 -0.38 l-3.08 0 l-1.86 -1.86 l0 -4.54 l1.86 -1.86 l4.12 0 l1.86 1.86 l0 2.62 l-2.52 0 l0 -1.58 l-0.38 -0.38 l-2.04 0 l-0.38 0.38 l0 2.46 l0.38 0.38 l3.08 0 l1.86 1.86 l0 4.54 l-1.86 1.86 l-4.12 0 z M111.7 20 l0 -2.24 l0.42 -0.28 l0 -8.96 l-0.42 -0.28 l0 -2.24 l3.36 0 l0 2.24 l-0.42 0.28 l0 8.96 l0.42 0.28 l0 2.24 l-3.36 0 z M116.26 20 l0 -2.24 l0.42 -0.28 l0 -8.96 l-0.42 -0.28 l0 -2.24 l6.26 0 l1.86 1.86 l0 4.12 l-1.02 1.02 l1.02 1.02 l0 4.12 l-1.86 1.86 l-6.26 0 z M119.20000000000002 17.48 l2.28 0 l0.38 -0.38 l0 -2.04 l-0.8 -0.8 l-1.86 0 l0 3.22 z M119.20000000000002 11.74 l1.86 0 l0.8 -0.8 l0 -2.04 l-0.38 -0.38 l-2.28 0 l0 3.22 z M125.58000000000001 20 l0 -2.24 l0.42 -0.28 l0 -8.96 l-0.42 -0.28 l0 -2.24 l3.36 0 l0 2.24 l-0.42 0.28 l0 8.96 l1.4 0 l0.28 -0.42 l2.24 0 l0 2.94 l-6.86 0 z M133.64000000000001 20 l0 -2.24 l0.42 -0.28 l0 -8.96 l-0.42 -0.28 l0 -2.24 l7.28 0 l0 2.94 l-2.24 0 l-0.28 -0.42 l-1.82 0 l0 3.22 l3.22 0 l0 2.52 l-3.22 0 l0 3.22 l1.82 0 l0.28 -0.42 l2.24 0 l0 2.94 l-7.28 0 z">
                                            </path>
                                        </g>
                                    </svg>