<svg width="429" height="100.36920099381685" viewBox="0 0 230 53.81099353980857" class="looka-1j8o68f">
    <defs id="SvgjsDefs2402"></defs>
    <g id="SvgjsG2403" featurekey="symbolFeature-0"
        transform="matrix(0.6189015903880246,0,0,0.6189015903880246,-0.9450727317498943,-4.039580093459466)"
        fill="#1deaf5">
        <title xmlns="http://www.w3.org/2000/svg">21</title>
        <g xmlns="http://www.w3.org/2000/svg" data-name="Group">
            <path data-name="Compound Path"
                d="M94.5,49a4,4,0,1,0-3.9-5H67.2a16.5,16.5,0,0,0-2.4-6H82.6a4,4,0,1,0,0-2H63.3l-.3-.4V15.5H77.1a4,4,0,1,0,0-1.9H62a1,1,0,0,0-1,1V33.9a16.6,16.6,0,0,0-7.1-3.1,1,1,0,0,0,.1-.3V22.4a4,4,0,1,0-2,0v8.1H50.9a16.8,16.8,0,0,0-4.9.7V14.4a4,4,0,1,0-2,0V31.5a1,1,0,0,0,.1.5A16.5,16.5,0,0,0,38,36.7V22.4a4,4,0,1,0-2,0V37.5H12.5v-14h0a4,4,0,1,0-1.9,0h0v15a1,1,0,0,0,1,1H36.1l-.4.9a13.5,13.5,0,0,0-10.9,6.2H17.4a4,4,0,1,0,0,2h6.4a13.4,13.4,0,0,0-1.1,5.4c0,.2,0,.4,0,.6H9.4a4,4,0,1,0,0,2H22.8a13.5,13.5,0,0,0,2.8,6H17.4a4,4,0,1,0,0,2H27.7a13.5,13.5,0,0,0,8.4,3h0v15H21.9a4,4,0,1,0,0,1.9H37a1,1,0,0,0,1-1v-16h7V77.6a4,4,0,1,0,2,0V67.5h6V85.6a4,4,0,1,0,2,0V67.5h6V77.6a4,4,0,1,0,2,0V67.5h3.6A10.8,10.8,0,0,0,75.3,63H89.5V77h0a4,4,0,1,0,1.9,0h0V62a1,1,0,0,0-1-1h-14a10.7,10.7,0,0,0,.6-7h5.6a4,4,0,1,0,0-2H76.4a10.9,10.9,0,0,0-7.6-6H90.6A4,4,0,0,0,94.5,49Zm-8-14a2,2,0,1,1-2,2A2,2,0,0,1,86.5,35ZM81,12.5a2,2,0,1,1-2,2A2,2,0,0,1,81,12.5Zm-30,6a2,2,0,1,1,2,2A2,2,0,0,1,51,18.5Zm-8-8a2,2,0,1,1,2,2A2,2,0,0,1,43,10.5Zm-33.5,9a2,2,0,1,1,2,2A2,2,0,0,1,9.5,19.5Zm4,30a2,2,0,1,1,2-2A2,2,0,0,1,13.5,49.5Zm-8,8a2,2,0,1,1,2-2A2,2,0,0,1,5.5,57.5ZM18,85.5a2,2,0,1,1,2-2A2,2,0,0,1,18,85.5Zm30-4a2,2,0,1,1-2-2A2,2,0,0,1,48,81.5Zm8,8a2,2,0,1,1-2-2A2,2,0,0,1,56,89.5Zm8-8a2,2,0,1,1-2-2A2,2,0,0,1,64,81.5ZM92.5,81a2,2,0,1,1-2-2A2,2,0,0,1,92.5,81Zm-6-30a2,2,0,1,1-2,2A2,2,0,0,1,86.5,51Zm8-8a2,2,0,1,1-2,2A2,2,0,0,1,94.5,43ZM35,18.5a2,2,0,1,1,2,2A2,2,0,0,1,35,18.5Zm-21.5,47a2,2,0,1,1,2-2A2,2,0,0,1,13.5,65.5Zm61.9-8.9a8.9,8.9,0,0,1-8.8,8.8H36.1a11.5,11.5,0,1,1,0-23.1h.1a1,1,0,0,0,1.1-.6,14.7,14.7,0,0,1,28.3,5,1,1,0,0,0,1,1A8.9,8.9,0,0,1,75.4,56.6Z">
            </path>
        </g>
    </g>
    <g id="SvgjsG2404" featurekey="nameFeature-0"
        transform="matrix(1.3578495080516646,0,0,1.3578495080516646,74.80201634432751,0.3026884386719695)"
        fill="#1deaf5">
        <path
            d="M3.8281 38.5937 l6.4844 0 l0 -19.922 l-6.4844 -9.1406 l0 29.063 z M29.766 1.4059999999999988 l0 25.703 l-18.359 -25.703 l-7.0313 0 l26.406 37.188 l5.3906 0 l0 -37.188 l-6.4063 0 z M72.813 27.344 c-0.98961 2.3959 -2.3438 4.375 -4.0625 5.9375 c-1.7709 1.6666 -3.8542 2.9688 -6.2501 3.9063 s-5.0781 1.4063 -8.0469 1.4063 l-8.6719 0 l0 -5.9375 l8.5938 0 c1.9791 0 3.776 -0.3125 5.3906 -0.9375 c1.5625 -0.625 2.9166 -1.5104 4.0625 -2.6563 s2.0313 -2.5 2.6563 -4.0625 s0.9375 -3.2813 0.9375 -5.1563 c0 -1.8229 -0.3125 -3.5156 -0.9375 -5.0781 c-0.625 -1.6146 -1.5104 -2.9427 -2.6563 -3.9844 c-1.0416 -1.0938 -2.3958 -1.9791 -4.0624 -2.6563 c-1.6666 -0.625 -3.4635 -0.9375 -5.3906 -0.9375 l-8.5938 0 l0 -5.9375 l8.6719 0 c2.7604 0 5.4166 0.49477 7.9688 1.4844 c2.3959 0.88539 4.5052 2.2135 6.3281 3.9844 c1.7709 1.6146 3.125 3.5938 4.0625 5.9375 c0.98961 2.3959 1.4844 4.8438 1.4844 7.3438 c0 2.7084 -0.49477 5.1563 -1.4844 7.3438 z M87.2656 12.5 c0.9375 -2.2916 2.2916 -4.2447 4.0624 -5.8593 c1.6146 -1.6146 3.698 -2.9167 6.2501 -3.9063 s5.2344 -1.4844 8.0469 -1.4844 l8.6719 0 l0 5.9375 l-8.5938 0 c-2.0313 0 -3.8281 0.33852 -5.3906 1.0156 c-1.6666 0.67711 -3.0208 1.5625 -4.0624 2.6563 c-1.0938 1.0416 -1.9791 2.3958 -2.6563 4.0624 c-0.625 1.5104 -0.9375 3.2031 -0.9375 5.0781 s0.3125 3.5677 0.9375 5.0781 c0.625 1.5625 1.5104 2.9166 2.6563 4.0625 c1.0416 1.0416 2.3958 1.901 4.0624 2.5781 c1.6666 0.625 3.4635 0.9375 5.3906 0.9375 l8.5938 0 l0 5.9375 l-8.6719 0 c-2.9166 0 -5.5729 -0.46875 -7.9688 -1.4063 c-2.5 -1.0416 -4.6094 -2.3698 -6.3281 -3.9844 c-1.7709 -1.6666 -3.125 -3.6458 -4.0625 -5.9374 c-0.98961 -2.3959 -1.4844 -4.8438 -1.4844 -7.3438 c0 -2.6563 0.49477 -5.1302 1.4844 -7.4219 z">
        </path>
    </g>
</svg>