<svg width="396" height="217.35338345864662" viewBox="0 0 266 146" class="looka-1j8o68f" >
    <defs id="SvgjsDefs3249">
        <linearGradient id="SvgjsLinearGradient3258">
            <stop id="SvgjsStop3259" stop-color="#905e26" offset="0"></stop>
            <stop id="SvgjsStop3260" stop-color="#f5ec9b" offset="0.5"></stop>
            <stop id="SvgjsStop3261" stop-color="#905e26" offset="1"></stop>
        </linearGradient>
        <linearGradient id="SvgjsLinearGradient3262">
            <stop id="SvgjsStop3263" stop-color="#905e26" offset="0"></stop>
            <stop id="SvgjsStop3264" stop-color="#f5ec9b" offset="0.5"></stop>
            <stop id="SvgjsStop3265" stop-color="#905e26" offset="1"></stop>
        </linearGradient>
        <linearGradient id="SvgjsLinearGradient3266">
            <stop id="SvgjsStop3267" stop-color="#905e26" offset="0"></stop>
            <stop id="SvgjsStop3268" stop-color="#f5ec9b" offset="0.5"></stop>
            <stop id="SvgjsStop3269" stop-color="#905e26" offset="1"></stop>
        </linearGradient>
        <linearGradient id="SvgjsLinearGradient3270">
            <stop id="SvgjsStop3271" stop-color="#905e26" offset="0"></stop>
            <stop id="SvgjsStop3272" stop-color="#f5ec9b" offset="0.5"></stop>
            <stop id="SvgjsStop3273" stop-color="#905e26" offset="1"></stop>
        </linearGradient>
    </defs>
    <g id="SvgjsG3250" featurekey="symbolFeature-0"
        transform="matrix(0.7888643844429916,0,0,0.7888643844429916,-13.846186832479267,34.65228545697805)"
        fill="url(#SvgjsLinearGradient3258)">
        <path xmlns="http://www.w3.org/2000/svg"
            d="M55.4,77.2C43,75.6,20.2,67.3,17.7,50c-1.9-19.8,15-27.3,22-23.9c4,3.3,2.2,7,5,8.8c5.2,3.4,6.2,7.1,9.4,8  c4.4,1.2,9,5,12.5,10c2,2.9,9.2,2.4,11.3,3.8c5.3,3.6,3.3,6.6,6.1,6.6c1.9,0,3-5.4,1.4-8.4c-2.3-4.4-5.4-4.4-7.1-4.9  c-4.5-1.3-7.4-3.2-9.3-5.1c-3.3-3.3-5.3-5.6-8.1-6.2c-2.8-0.6-7.7-3.1-8.6-6.1c-0.9-3.2-7.7-1.4-8-7.9c-0.6-6,12.5-4.7,25,0.5  C105.9,40.5,101.1,83.4,55.4,77.2z">
        </path>
    </g>
    <g id="SvgjsG3251" featurekey="textGroupContainer" transform="matrix(1,0,0,1,265,0)"
        fill="url(#SvgjsLinearGradient3262)">
        <rect xmlns="http://www.w3.org/2000/svg" y="0" height="1" width="1" opacity="0"></rect>
    </g>
    <g id="SvgjsG3252" featurekey="nameFeature-0"
        transform="matrix(3.7183936398765036,0,0,3.7183936398765036,93.53793011444375,15.433312633352465)"
        fill="url(#SvgjsLinearGradient3266)">
        <path
            d="M10.36 6 l2.92 0 l0 14 l-2.22 0 l-6.94 -8.68 l0 8.68 l-2.92 0 l0 -14 l2.26 0 l6.9 8.7 l0 -8.7 z M20.68 6 c3.98 0 7.1 3.12 7.1 6.92 c0 3.96 -3.12 7.08 -7.1 7.08 l-5 0 l0 -14 l5 0 z M20.66 17.240000000000002 c2.68 0 4.12 -1.94 4.12 -4.32 c0 -2.22 -1.44 -4.16 -4.12 -4.16 l-2.06 0 l0 8.48 l2.06 0 z M41.54 18.5 c-1.24 1.12 -2.9 1.7 -4.76 1.7 c-3.92 0 -7.3 -2.94 -7.3 -7.2 s3.38 -7.2 7.3 -7.2 c1.84 0 3.48 0.6 4.68 1.66 l-1.76 1.98 c-0.74 -0.52 -1.74 -0.9 -2.76 -0.9 c-2.52 0 -4.42 1.86 -4.42 4.46 s1.9 4.46 4.42 4.46 c1.06 0 2.1 -0.4 2.86 -1 z">
        </path>
    </g>
    <g id="SvgjsG3253" featurekey="sloganFeature-0"
        transform="matrix(0.5593362320337261,0,0,0.5593362320337261,97.49659733782718,98.40468129160445)"
        fill="url(#SvgjsLinearGradient3270)">
        <path
            d="M2.64 7.18 l-1.74 -2.1 l2.82 0 l9.58 11.4 l0 -11.4 l2.2 0 l0 14.92 l-2.16 0 l-8.56 -10.26 l0 10.26 l-2.14 0 l0 -12.82 z M32.8 12.440000000000001 q0 -1.6 -0.82 -2.9 q-0.78 -1.26 -2.13 -1.98 t-2.93 -0.72 q-1.64 0 -2.99 0.74 t-2.11 2.02 q-0.78 1.34 -0.78 2.98 q0 1.56 0.84 2.88 q0.8 1.24 2.15 1.97 t2.92 0.73 t2.92 -0.76 t2.13 -2.04 q0.8 -1.34 0.8 -2.92 z M34.96 12.559999999999999 q0 2.16 -1.12 3.98 q-1.08 1.74 -2.93 2.77 t-3.99 1.03 q-2.22 0 -4.08 -1.08 q-1.82 -1.04 -2.86 -2.86 q-1.08 -1.86 -1.08 -4.08 q0 -2.14 1.14 -3.94 q1.08 -1.72 2.93 -2.73 t3.97 -1.01 q2.18 0 4.04 1.06 q1.82 1.04 2.88 2.82 q1.1 1.86 1.1 4.04 z M49.459999999999994 7.279999999999999 l-5.26 0 l0 12.72 l-2.12 0 l0 -12.72 l-5.32 0 l0 -2.2 l12.7 0 l0 2.2 z M70.58 12.440000000000001 q0 -1.6 -0.82 -2.9 q-0.78 -1.26 -2.13 -1.98 t-2.93 -0.72 q-1.64 0 -2.99 0.74 t-2.11 2.02 q-0.78 1.34 -0.78 2.98 q0 1.56 0.84 2.88 q0.8 1.24 2.15 1.97 t2.92 0.73 t2.92 -0.76 t2.13 -2.04 q0.8 -1.34 0.8 -2.92 z M72.74 12.559999999999999 q0 2.16 -1.12 3.98 q-1.08 1.74 -2.93 2.77 t-3.99 1.03 q-2.22 0 -4.08 -1.08 q-1.82 -1.04 -2.86 -2.86 q-1.08 -1.86 -1.08 -4.08 q0 -2.14 1.14 -3.94 q1.08 -1.72 2.93 -2.73 t3.97 -1.01 q2.18 0 4.04 1.06 q1.82 1.04 2.88 2.82 q1.1 1.86 1.1 4.04 z M76.58 7.18 l-1.74 -2.1 l2.82 0 l9.58 11.4 l0 -11.4 l2.2 0 l0 14.92 l-2.16 0 l-8.56 -10.26 l0 10.26 l-2.14 0 l0 -12.82 z M104.3 20 l-10.46 0 l0 -14.92 l2.18 0 l0 12.74 l8.28 0 l0 2.18 z M111.84 11.64 q1.34 -1.4 2.42 -3.12 t1.72 -3.44 l2.5 0 q-1.02 2.38 -2.48 4.56 q-1.32 1.98 -3.08 3.9 l0 6.46 l-2.16 0 l0 -6.46 q-1.76 -1.92 -3.08 -3.9 q-1.46 -2.18 -2.48 -4.56 l2.5 0 q0.64 1.72 1.72 3.44 t2.42 3.12 z M139.38 7 l-1.4 1.64 q-0.82 -0.84 -1.96 -1.32 t-2.4 -0.48 q-1.64 0 -2.99 0.74 t-2.11 2.02 q-0.78 1.34 -0.78 2.98 q0 1.56 0.84 2.88 q0.8 1.24 2.15 1.97 t2.91 0.73 q1.44 0 2.68 -0.62 t2.06 -1.72 l1.34 1.82 q-1.14 1.28 -2.73 1.99 t-3.37 0.71 q-2.22 0 -4.08 -1.08 q-1.82 -1.04 -2.86 -2.86 q-1.08 -1.86 -1.08 -4.08 q0 -2.14 1.14 -3.94 q1.08 -1.72 2.93 -2.73 t3.97 -1.01 q1.66 0 3.16 0.64 q1.46 0.6 2.58 1.72 z M155.82 12.440000000000001 q0 -1.6 -0.82 -2.9 q-0.78 -1.26 -2.13 -1.98 t-2.93 -0.72 q-1.64 0 -2.99 0.74 t-2.11 2.02 q-0.78 1.34 -0.78 2.98 q0 1.56 0.84 2.88 q0.8 1.24 2.15 1.97 t2.92 0.73 t2.92 -0.76 t2.13 -2.04 q0.8 -1.34 0.8 -2.92 z M157.98 12.559999999999999 q0 2.16 -1.12 3.98 q-1.08 1.74 -2.93 2.77 t-3.99 1.03 q-2.22 0 -4.08 -1.08 q-1.82 -1.04 -2.86 -2.86 q-1.08 -1.86 -1.08 -4.08 q0 -2.14 1.14 -3.94 q1.08 -1.72 2.93 -2.73 t3.97 -1.01 q2.18 0 4.04 1.06 q1.82 1.04 2.88 2.82 q1.1 1.86 1.1 4.04 z M163.56 14.02 l0 5.98 l-2.18 0 l0 -14.92 l10.5 0 l0 2.2 l-8.32 0 l0 4.52 q0.62 -0.36 1.38 -0.48 q0.56 -0.1 1.44 -0.1 l3.26 0 l0 2.22 l-3.26 0 q-0.82 0 -1.44 0.1 q-0.76 0.14 -1.38 0.48 z M177.46 14.02 l0 5.98 l-2.18 0 l0 -14.92 l10.5 0 l0 2.2 l-8.32 0 l0 4.52 q0.62 -0.36 1.38 -0.48 q0.56 -0.1 1.44 -0.1 l3.26 0 l0 2.22 l-3.26 0 q-0.82 0 -1.44 0.1 q-0.76 0.14 -1.38 0.48 z M191.36 14.02 l0 3.8 l9.2 0 l0 2.18 l-11.38 0 l0 -14.92 l10.5 0 l0 2.2 l-8.32 0 l0 4.52 q0.62 -0.36 1.38 -0.48 q0.56 -0.1 1.44 -0.1 l3.26 0 l0 2.22 l-3.26 0 q-0.82 0 -1.44 0.1 q-0.76 0.14 -1.38 0.48 z M206.24 14.02 l0 3.8 l9.2 0 l0 2.18 l-11.38 0 l0 -14.92 l10.5 0 l0 2.2 l-8.32 0 l0 4.52 q0.62 -0.36 1.38 -0.48 q0.56 -0.1 1.44 -0.1 l3.26 0 l0 2.22 l-3.26 0 q-0.82 0 -1.44 0.1 q-0.76 0.14 -1.38 0.48 z">
        </path>
    </g>
</svg>